<svg width="12" height="12" viewBox="0 0 12 12" fill="none" xmlns="http://www.w3.org/2000/svg">
<g clip-path="url(#clip0_464_1852)">
<path d="M6 2.8125C4.25524 2.8125 2.8125 4.25524 2.8125 6C2.8125 7.74476 4.25524 9.1875 6 9.1875C7.74476 9.1875 9.1875 7.74476 9.1875 6C9.1875 4.25524 7.74476 2.8125 6 2.8125ZM6.35156 8.44884V3.55116C7.54102 3.72359 8.48438 4.76355 8.48438 6C8.48438 7.23645 7.54102 8.27641 6.35156 8.44884Z" fill="#0974E4"/>
<path d="M6 0C5.80568 0 5.64844 0.157242 5.64844 0.351562V1.75781C5.64844 1.95213 5.80568 2.10938 6 2.10938C6.19432 2.10938 6.35156 1.95213 6.35156 1.75781V0.351562C6.35156 0.157242 6.19432 0 6 0Z" fill="#0974E4"/>
<path d="M6 9.89062C5.80568 9.89062 5.64844 10.0479 5.64844 10.2422V11.6484C5.64844 11.8428 5.80568 12 6 12C6.19432 12 6.35156 11.8428 6.35156 11.6484V10.2422C6.35156 10.0479 6.19432 9.89062 6 9.89062Z" fill="#0974E4"/>
<path d="M1.75781 5.64844H0.351562C0.157242 5.64844 0 5.80568 0 6C0 6.19432 0.157242 6.35156 0.351562 6.35156H1.75781C1.95213 6.35156 2.10938 6.19432 2.10938 6C2.10938 5.80568 1.95213 5.64844 1.75781 5.64844Z" fill="#0974E4"/>
<path d="M11.6484 5.64844H10.2422C10.0479 5.64844 9.89062 5.80568 9.89062 6C9.89062 6.19432 10.0479 6.35156 10.2422 6.35156H11.6484C11.8428 6.35156 12 6.19432 12 6C12 5.80568 11.8428 5.64844 11.6484 5.64844Z" fill="#0974E4"/>
<path d="M3.24222 8.75802C3.1049 8.6207 2.88241 8.6207 2.74509 8.75802L1.75047 9.75229C1.61312 9.88961 1.61312 10.1121 1.75047 10.2494C1.88779 10.3867 2.11028 10.3867 2.2476 10.2494L3.24222 9.25515C3.37954 9.11783 3.37954 8.89534 3.24222 8.75802Z" fill="#0974E4"/>
<path d="M10.2492 1.75057C10.1119 1.61325 9.88936 1.61325 9.75204 1.75057L8.75778 2.74484C8.62046 2.88216 8.62046 3.10465 8.75778 3.24197C8.8951 3.37929 9.11759 3.37929 9.25491 3.24197L10.2492 2.24771C10.3865 2.11039 10.3865 1.88792 10.2492 1.75057Z" fill="#0974E4"/>
<path d="M10.2492 9.75229L9.25491 8.75802C9.11759 8.6207 8.8951 8.6207 8.75778 8.75802C8.62046 8.89534 8.62046 9.11783 8.75778 9.25515L9.75204 10.2494C9.88936 10.3867 10.1119 10.3867 10.2492 10.2494C10.3865 10.1121 10.3865 9.88961 10.2492 9.75229Z" fill="#0974E4"/>
<path d="M3.2422 2.74484L2.24758 1.75057C2.11024 1.61325 1.88777 1.61325 1.75045 1.75057C1.61313 1.88789 1.61313 2.11039 1.75045 2.24771L2.74507 3.24197C2.88239 3.37929 3.10488 3.37929 3.2422 3.24197C3.37952 3.10465 3.37952 2.88216 3.2422 2.74484Z" fill="#0974E4"/>
</g>
<defs>
<clipPath id="clip0_464_1852">
<rect width="12" height="12" fill="white"/>
</clipPath>
</defs>
</svg>
