<svg width="27" height="27" viewBox="0 0 27 27" fill="none" xmlns="http://www.w3.org/2000/svg">
<g opacity="0.5">
<path d="M13.289 25.1015C13.1146 25.1015 12.9399 25.0583 12.7815 24.9713C12.4441 24.7861 12.2344 24.4317 12.2344 24.0468V21.9375C12.2344 21.3559 11.7612 20.8828 11.1797 20.8828H9.49219C4.2582 20.8828 0 16.6246 0 11.3906C0 6.15663 4.2582 1.89844 9.49219 1.89844H17.5078C22.7418 1.89844 27 6.15663 27 11.3906C27 11.4342 26.9997 11.4776 26.9993 11.5209C26.9744 14.0777 26.1977 15.9938 24.481 17.7341C22.9101 19.3265 20.6148 20.7422 17.4378 22.7016C16.368 23.3615 15.1554 24.1094 13.8552 24.9366C13.6829 25.0462 13.4861 25.1015 13.289 25.1015ZM9.49219 4.00781C5.4213 4.00781 2.10938 7.31974 2.10938 11.3906C2.10938 15.4615 5.4213 18.7734 9.49219 18.7734H11.1797C12.9244 18.7734 14.3438 20.1928 14.3438 21.9375V22.1365C15.047 21.6979 15.7125 21.2874 16.3305 20.9063C19.382 19.0242 21.5868 17.6643 22.9793 16.2527C24.3168 14.897 24.8704 13.5201 24.89 11.5005C24.8904 11.464 24.8906 11.4274 24.8906 11.3906C24.8906 7.31974 21.5787 4.00781 17.5078 4.00781H9.49219Z" fill="black"/>
<path d="M17.5078 10.3359H9.49219C8.90968 10.3359 8.4375 9.86375 8.4375 9.28125C8.4375 8.69875 8.90968 8.22656 9.49219 8.22656H17.5078C18.0903 8.22656 18.5625 8.69875 18.5625 9.28125C18.5625 9.86375 18.0903 10.3359 17.5078 10.3359Z" fill="black"/>
<path d="M17.5078 14.5547H9.49219C8.90968 14.5547 8.4375 14.0825 8.4375 13.5C8.4375 12.9175 8.90968 12.4453 9.49219 12.4453H17.5078C18.0903 12.4453 18.5625 12.9175 18.5625 13.5C18.5625 14.0825 18.0903 14.5547 17.5078 14.5547Z" fill="black"/>
</g>
</svg>
