<svg width="17" height="17" viewBox="0 0 17 17" fill="none" xmlns="http://www.w3.org/2000/svg">
<g clip-path="url(#clip0_89_706)">
<path d="M13.3028 0.338867H3.06995C2.2243 0.338867 1.5012 0.639431 0.90085 1.23941C0.300313 1.84013 0.00012207 2.56305 0.00012207 3.40867V13.6417C0.00012207 14.4873 0.300282 15.2106 0.90085 15.8106C1.5012 16.411 2.2243 16.7117 3.06992 16.7117H13.3028C14.1484 16.7117 14.8713 16.4112 15.4718 15.8106C16.0722 15.2106 16.3726 14.4873 16.3726 13.6418V3.40886C16.3726 2.56323 16.0722 1.84035 15.4718 1.2396C14.8713 0.639431 14.1482 0.338867 13.3028 0.338867ZM6.77922 10.1241C6.33843 10.5647 5.80554 10.7849 5.18029 10.7849C4.55486 10.7849 4.02193 10.5647 3.58136 10.1241C3.14061 9.68354 2.92039 9.15065 2.92039 8.52521C2.92039 7.89978 3.14058 7.36689 3.58136 6.92628C4.02193 6.48571 4.55486 6.26552 5.18029 6.26552C5.80554 6.26552 6.33843 6.48571 6.77922 6.92628C7.21979 7.36685 7.4402 7.89978 7.4402 8.52521C7.4402 9.15065 7.21982 9.68354 6.77922 10.1241ZM12.7912 10.1241C12.3504 10.5647 11.8175 10.7849 11.1922 10.7849C10.5668 10.7849 10.0339 10.5647 9.59331 10.1241C9.15256 9.68354 8.93233 9.15065 8.93233 8.52521C8.93233 7.89978 9.15256 7.36689 9.59331 6.92628C10.0339 6.48571 10.5668 6.26552 11.1922 6.26552C11.8175 6.26552 12.3504 6.48571 12.7912 6.92628C13.2317 7.36685 13.4521 7.89978 13.4521 8.52521C13.4521 9.15065 13.2317 9.68354 12.7912 10.1241Z" fill="#2D333D"/>
</g>
<defs>
<clipPath id="clip0_89_706">
<rect width="16.3729" height="16.3729" fill="white" transform="translate(0 0.338867)"/>
</clipPath>
</defs>
</svg>
