<svg width="21" height="21" viewBox="0 0 21 21" fill="none" xmlns="http://www.w3.org/2000/svg">
<g opacity="0.5">
<path d="M15.3398 1.60864C13.593 1.60864 12.0616 2.38757 10.9113 3.86126C10.7579 4.05781 10.6212 4.25444 10.5 4.44487C10.3788 4.2544 10.2421 4.05781 10.0887 3.86126C8.93837 2.38757 7.40701 1.60864 5.66016 1.60864C2.3602 1.60864 0 4.37174 0 7.68732C0 11.4785 3.10722 15.0516 10.075 19.2726C10.2056 19.3517 10.3528 19.3913 10.5 19.3913C10.6472 19.3913 10.7944 19.3518 10.925 19.2726C17.8928 15.0516 21 11.4786 21 7.68736C21 4.37351 18.6417 1.60864 15.3398 1.60864ZM17.192 12.408C15.7414 14.0266 13.5493 15.7309 10.5 17.6097C7.45069 15.7309 5.25861 14.0266 3.80801 12.4081C2.34958 10.7807 1.64062 9.23656 1.64062 7.68736C1.64062 5.30009 3.25393 3.24927 5.66016 3.24927C6.88554 3.24927 7.93037 3.78206 8.76565 4.83288C9.43355 5.67325 9.71496 6.54102 9.71693 6.54721C9.82378 6.8899 10.1411 7.12332 10.5 7.12332C10.859 7.12332 11.1763 6.88994 11.2832 6.54721C11.2857 6.53893 11.5587 5.69823 12.2047 4.8707C13.0444 3.79478 14.0993 3.24923 15.3398 3.24923C17.7486 3.24923 19.3594 5.30202 19.3594 7.68732C19.3594 9.23652 18.6504 10.7807 17.192 12.408Z" fill="black"/>
</g>
</svg>
