<svg width="225" height="225" viewBox="0 0 225 225" fill="none" xmlns="http://www.w3.org/2000/svg">
<path d="M195.523 200.187C199.2 198.888 202.48 196.649 205.043 193.689L207.386 195.718C204.484 199.114 200.75 201.682 196.557 203.165L195.523 200.187ZM171.54 199.181L173.182 196.556C176.486 198.752 180.174 200.294 184.048 201.099L183.476 204.171C179.241 203.273 175.211 201.58 171.596 199.181H171.54ZM209.895 183.225C210.542 179.838 210.403 176.346 209.489 173.022L209.268 172.222L209.083 171.682L211.98 170.639L212.201 171.272C212.293 171.57 212.385 171.868 212.459 172.184C213.497 175.969 213.661 179.944 212.939 183.802L209.895 183.225ZM85.5879 218.6L84.9607 215.547C89.0378 214.709 93.0596 213.685 96.9338 212.679L97.764 215.677C93.8713 216.757 89.7758 217.744 85.6433 218.582L85.5879 218.6ZM108.667 208.937L110.512 208.267C113.999 206.964 117.117 205.642 120.032 204.227L121.36 207.057C118.353 208.49 115.161 209.849 111.6 211.19L109.756 211.86L108.667 208.937ZM60.8298 222.1L60.5716 218.991C64.741 218.637 68.855 218.191 72.8214 217.632L73.2458 220.704C69.2793 221.263 65.1099 221.728 60.8852 222.082L60.8298 222.1ZM130.566 198.157C133.466 196.175 136.171 193.918 138.646 191.417L139.753 190.282L142.004 192.404L140.842 193.614C138.224 196.245 135.371 198.626 132.318 200.726L130.566 198.157ZM153.405 181.401L155.933 179.539C158.28 182.866 160.91 185.98 163.792 188.848L161.633 191.064C158.64 188.084 155.906 184.851 153.46 181.401H153.405ZM35.8873 222.994V219.885C40.112 219.885 44.2629 219.885 48.2478 219.699L48.3585 222.827C44.4105 222.882 40.2227 223.031 35.9426 222.994H35.8873ZM11 222.026L11.203 218.917C15.317 219.196 19.4311 219.438 23.5451 219.606L23.4344 222.715C19.3388 222.547 15.1878 222.305 11.0553 222.026H11ZM147.52 180.712C149.829 177.66 152.331 174.762 155.01 172.035C155.305 171.738 155.601 171.44 155.914 171.16L158.017 173.451L157.169 174.251C154.592 176.888 152.183 179.686 149.955 182.629L147.52 180.712ZM190.819 160.548L191.04 157.439C195.402 157.317 199.725 158.29 203.622 160.269L202.128 163.006C198.641 161.282 194.792 160.439 190.911 160.548H190.819ZM166.301 163.676C170.064 161.636 174.06 160.066 178.2 159.003L178.956 162.019L177.757 162.354C174.291 163.327 170.943 164.689 167.777 166.413L166.301 163.676ZM142.428 158.463L145.398 157.606C146.516 161.539 147.96 165.369 149.715 169.057L146.93 170.397C145.133 166.55 143.658 162.558 142.52 158.463H142.428Z" fill="#4EA0D0"/>
<path d="M202.048 2L187.645 113.658L151.016 101.127L140.45 132.333L124.99 89.1012L81.4287 76.7384L202.048 2Z" fill="#2385EC"/>
<path d="M142.939 98.4046L187.476 113.696L151.035 101.19L140.523 132.333L125.143 89.1887L174.29 36.8095L142.939 98.4046Z" fill="#0974E4"/>
<path d="M128.861 99.9524L173.714 36.8095L125.143 89.3411L128.861 99.9524Z" fill="#2C5988"/>
<path d="M160.814 13.7411L130.049 30.9495C129.299 31.3747 128.744 32.0852 128.507 32.9256C128.27 33.7659 128.369 34.6677 128.783 35.4338L129.04 35.9196C129.247 36.3007 129.525 36.6361 129.86 36.9066C130.195 37.1772 130.579 37.3773 130.99 37.4955C131.401 37.6137 131.832 37.6475 132.256 37.5951C132.68 37.5427 133.09 37.4051 133.461 37.1902L163.97 19.4959C164.351 19.278 164.685 18.9834 164.951 18.6301C165.218 18.2768 165.411 17.8722 165.519 17.4406C165.627 17.0091 165.648 16.5597 165.58 16.1196C165.513 15.6796 165.358 15.2581 165.126 14.8808C164.685 14.1669 163.993 13.6513 163.192 13.4394C162.391 13.2276 161.54 13.3355 160.814 13.7411Z" fill="#2385EC"/>
</svg>
