<svg width="19" height="17" viewBox="0 0 19 17" fill="none" xmlns="http://www.w3.org/2000/svg">
<path d="M6.09593 16.4285C12.716 16.4285 16.3363 10.2584 16.3363 4.90814C16.3363 4.7329 16.3331 4.55838 16.3261 4.38483C17.0288 3.81324 17.6395 3.09997 18.1214 2.28809C17.4766 2.6107 16.7825 2.82757 16.0546 2.92569C16.7976 2.42423 17.3681 1.6313 17.6372 0.686062C16.9418 1.14987 16.1716 1.48684 15.3518 1.66884C14.695 0.88182 13.7599 0.389648 12.7245 0.389648C10.7371 0.389648 9.12518 2.20289 9.12518 4.43805C9.12518 4.75595 9.15683 5.06491 9.21852 5.36133C6.22724 5.192 3.57465 3.58092 1.79971 1.13092C1.49075 1.72918 1.31245 2.42435 1.31245 3.16611C1.31245 4.57069 1.94787 5.81102 2.91402 6.53636C2.32356 6.51596 1.76892 6.3336 1.28402 6.03007C1.28348 6.04709 1.28348 6.06362 1.28348 6.08172C1.28348 8.04268 2.52406 9.67996 4.17113 10.051C3.8686 10.1435 3.5503 10.1934 3.22202 10.1934C2.99051 10.1934 2.7648 10.1678 2.54552 10.1204C3.00371 11.7291 4.33247 12.8998 5.90777 12.9327C4.67588 14.0189 3.12408 14.6659 1.43754 14.6659C1.14745 14.6659 0.860695 14.6472 0.578979 14.6098C2.17187 15.7584 4.06331 16.4287 6.09604 16.4287" fill="#2D333D"/>
</svg>
