<svg width="19" height="19" viewBox="0 0 19 19" fill="none" xmlns="http://www.w3.org/2000/svg">
<g clip-path="url(#clip0_89_702)">
<path fill-rule="evenodd" clip-rule="evenodd" d="M18.6323 4.45955C18.7719 3.67608 18.7687 2.87047 18.2849 2.26121C17.6097 1.40695 16.1727 1.37551 15.1883 1.52627C14.3874 1.64871 11.6786 2.84384 10.7569 5.70502C12.3899 5.58089 13.2458 5.82271 13.0887 7.62068C13.0229 8.37296 12.6428 9.1971 12.2188 9.98718C11.7287 10.898 10.8102 12.6865 9.6057 11.3973C8.52079 10.237 8.60225 8.018 8.35419 6.54025C8.21603 5.71119 8.06995 4.67798 7.79832 3.82522C7.56423 3.09189 7.02745 2.20776 6.37097 2.01615C5.66591 1.80894 4.79418 2.13235 4.28229 2.43392C2.65223 3.39178 1.40994 4.75476 0 5.87916C0.229533 6.37091 0.354716 6.68951 0.766129 6.7492C1.73672 6.89216 2.66171 5.84467 3.30696 6.93451C3.69953 7.60035 3.82216 8.33049 4.07334 9.0484C4.40934 10.0045 4.66844 11.0456 4.94325 12.145C5.40806 14.0072 5.97977 16.7899 7.58937 17.4715C8.41057 17.8202 9.645 17.3537 10.27 16.9831C11.9628 15.9813 13.2819 14.5288 14.411 13.0511C16.9925 9.55375 18.4169 5.59181 18.6323 4.45955Z" fill="#2D333D"/>
</g>
<defs>
<clipPath id="clip0_89_702">
<rect width="18.7119" height="18.7119" fill="white" transform="translate(0 0.169434)"/>
</clipPath>
</defs>
</svg>
