<svg width="14" height="14" viewBox="0 0 14 14" fill="none" xmlns="http://www.w3.org/2000/svg">
<g opacity="0.7" clip-path="url(#clip0_58_49)">
<path d="M7.00005 0C3.14021 0 0 3.14021 0 7.00005C0 10.8599 3.14021 14.0001 7.00005 14.0001C10.8599 14.0001 14.0001 10.8599 14.0001 7.00005C14.0001 3.14021 10.8598 0 7.00005 0ZM7.00005 12.5258C3.95311 12.5258 1.47423 10.047 1.47423 7.00005C1.47423 3.95311 3.95311 1.47423 7.00005 1.47423C10.047 1.47423 12.5259 3.95311 12.5259 7.00005C12.5259 10.047 10.047 12.5258 7.00005 12.5258Z" fill="#2D333D"/>
<path d="M9.91893 7.07785H7.04919V4.5921C7.04919 4.18491 6.71926 3.85498 6.31207 3.85498C5.90489 3.85498 5.57496 4.18491 5.57496 4.5921V7.81497C5.57496 8.22215 5.90489 8.55208 6.31207 8.55208H9.91893C10.3261 8.55208 10.656 8.22215 10.656 7.81497C10.656 7.40778 10.326 7.07785 9.91893 7.07785Z" fill="#2D333D"/>
</g>
<defs>
<clipPath id="clip0_58_49">
<rect width="14" height="14" fill="white"/>
</clipPath>
</defs>
</svg>
