<svg width="103" height="47" viewBox="0 0 103 47" fill="none" xmlns="http://www.w3.org/2000/svg">
<g clip-path="url(#clip0_269_691)">
<path d="M35.36 9.22998H29.27V33.65H35.36V9.22998Z" fill="white"/>
<path d="M102.35 9.24023H96.24V33.6602H102.35V9.24023Z" fill="white"/>
<path d="M25.26 9.22998L16.51 33.66H8.76L0 9.22998H6.25L12.64 27.06L19.01 9.22998H25.26Z" fill="white"/>
<path d="M51.6299 9.24024C49.2142 9.23826 46.8521 9.95294 44.8426 11.2938C42.8332 12.6347 41.2667 14.5416 40.3413 16.7731C39.4159 19.0045 39.1732 21.4604 39.644 23.8298C40.1148 26.1993 41.2779 28.3758 42.9861 30.084C44.6943 31.7922 46.8709 32.9553 49.2403 33.4261C51.6098 33.8969 54.0656 33.6543 56.2971 32.7289C58.5286 31.8035 60.4354 30.237 61.7763 28.2275C63.1172 26.2181 63.8319 23.856 63.8299 21.4402C63.8246 18.2062 62.5376 15.1062 60.2508 12.8194C57.964 10.5326 54.8639 9.24553 51.6299 9.24024ZM51.6299 27.5502C50.4223 27.5463 49.243 27.1846 48.2408 26.5108C47.2387 25.837 46.4587 24.8814 45.9993 23.7646C45.5399 22.6478 45.4218 21.4199 45.6598 20.236C45.8978 19.0521 46.4813 17.9653 47.3366 17.1128C48.1918 16.2603 49.2806 15.6804 50.4653 15.4462C51.6499 15.2121 52.8774 15.3342 53.9927 15.7973C55.108 16.2603 56.0611 17.0434 56.7316 18.0478C57.4021 19.0521 57.7599 20.2326 57.7599 21.4402C57.7612 22.2447 57.6034 23.0414 57.2956 23.7846C56.9878 24.5278 56.536 25.2028 55.9662 25.7707C55.3965 26.3386 54.72 26.7882 53.9758 27.0936C53.2316 27.399 52.4343 27.5542 51.6299 27.5502Z" fill="white"/>
<path d="M79.48 9.24024C77.0642 9.23826 74.7022 9.95294 72.6927 11.2938C70.6833 12.6347 69.1167 14.5416 68.1914 16.7731C67.266 19.0045 67.0233 21.4604 67.4941 23.8298C67.9649 26.1993 69.128 28.3758 70.8362 30.084C72.5444 31.7922 74.721 32.9553 77.0904 33.4261C79.4598 33.8969 81.9157 33.6543 84.1472 32.7289C86.3787 31.8035 88.2855 30.237 89.6264 28.2275C90.9673 26.2181 91.682 23.856 91.68 21.4402C91.6747 18.2062 90.3877 15.1062 88.1009 12.8194C85.8141 10.5326 82.714 9.24553 79.48 9.24024ZM79.48 27.5502C78.2716 27.5502 77.0903 27.1919 76.0855 26.5205C75.0807 25.8491 74.2975 24.8949 73.8351 23.7784C73.3726 22.662 73.2517 21.4335 73.4874 20.2482C73.7232 19.063 74.3051 17.9743 75.1596 17.1198C76.0141 16.2653 77.1028 15.6834 78.288 15.4476C79.4732 15.2119 80.7017 15.3329 81.8182 15.7953C82.9347 16.2578 83.8889 17.0409 84.5603 18.0457C85.2317 19.0505 85.59 20.2318 85.59 21.4402C85.5913 22.243 85.4342 23.0381 85.1276 23.78C84.821 24.5219 84.371 25.196 83.8034 25.7636C83.2357 26.3312 82.5617 26.7812 81.8198 27.0878C81.0779 27.3944 80.2828 27.5516 79.48 27.5502Z" fill="white"/>
<path d="M84.9401 37.6699C84.3759 38.4419 83.6367 39.0691 82.7833 39.5002C81.9298 39.9313 80.9863 40.154 80.0301 40.1499C79.0749 40.1484 78.1334 39.9233 77.2808 39.4926C76.4282 39.062 75.6882 38.4378 75.1201 37.6699H68.3701C69.1403 40.1594 70.6873 42.3368 72.7846 43.8833C74.8819 45.4299 77.4193 46.2642 80.0251 46.2642C82.631 46.2642 85.1684 45.4299 87.2657 43.8833C89.363 42.3368 90.91 40.1594 91.6801 37.6699H84.9401Z" fill="#66CC66"/>
<path d="M96.25 2.24L102.36 0V7.23H96.25V2.24Z" fill="#66CC66"/>
</g>
<defs>
<clipPath id="clip0_269_691">
<rect width="102.36" height="46.25" fill="white"/>
</clipPath>
</defs>
</svg>
