<svg width="130" height="59" viewBox="0 0 130 59" fill="none" xmlns="http://www.w3.org/2000/svg">
<g clip-path="url(#clip0_336_505)">
<path d="M44.9083 11.7222H37.1738V42.7362H44.9083V11.7222Z" fill="white"/>
<path d="M129.987 11.7349H122.228V42.7489H129.987V11.7349Z" fill="white"/>
<path d="M32.0809 11.7222L20.9682 42.7489H11.1254L0 11.7222H7.93767L16.0531 34.3668L24.1432 11.7222H32.0809Z" fill="white"/>
<path d="M65.5715 11.7349C62.5034 11.7324 59.5035 12.64 56.9515 14.343C54.3994 16.046 52.4099 18.4677 51.2346 21.3017C50.0593 24.1358 49.7512 27.2548 50.3491 30.2641C50.947 33.2733 52.4242 36.0376 54.5937 38.207C56.7631 40.3765 59.5274 41.8536 62.5366 42.4516C65.5459 43.0495 68.6649 42.7414 71.499 41.5661C74.333 40.3908 76.7547 38.4013 78.4577 35.8492C80.1607 33.2972 81.0683 30.2973 81.0658 27.2292C81.0591 23.1219 79.4245 19.1848 76.5202 16.2805C73.6159 13.3762 69.6788 11.7416 65.5715 11.7349ZM65.5715 34.9891C64.0378 34.984 62.54 34.5247 61.2673 33.669C59.9945 32.8133 59.0039 31.5996 58.4204 30.1812C57.837 28.7628 57.687 27.2034 57.9892 25.6998C58.2915 24.1962 59.0326 22.8159 60.1188 21.7332C61.2051 20.6505 62.5878 19.914 64.0923 19.6166C65.5969 19.3193 67.1559 19.4744 68.5723 20.0625C69.9888 20.6505 71.1992 21.6451 72.0507 22.9207C72.9023 24.1962 73.3568 25.6955 73.3568 27.2292C73.3585 28.2509 73.158 29.2628 72.7671 30.2066C72.3761 31.1505 71.8023 32.0078 71.0787 32.729C70.3551 33.4502 69.496 34.0212 68.5508 34.4091C67.6057 34.797 66.5931 34.9941 65.5715 34.9891Z" fill="white"/>
<path d="M100.942 11.7349C97.8735 11.7324 94.8736 12.64 92.3216 14.343C89.7695 16.046 87.78 18.4677 86.6047 21.3017C85.4295 24.1358 85.1213 27.2548 85.7192 30.2641C86.3172 33.2733 87.7943 36.0376 89.9638 38.207C92.1332 40.3765 94.8975 41.8536 97.9067 42.4516C100.916 43.0495 104.035 42.7414 106.869 41.5661C109.703 40.3908 112.125 38.4013 113.828 35.8492C115.531 33.2972 116.438 30.2973 116.436 27.2292C116.429 23.1219 114.795 19.1848 111.89 16.2805C108.986 13.3762 105.049 11.7416 100.942 11.7349ZM100.942 34.9891C99.4069 34.9891 97.9066 34.534 96.6305 33.6813C95.3544 32.8286 94.3597 31.6167 93.7724 30.1988C93.1851 28.7808 93.0314 27.2206 93.3308 25.7153C93.6303 24.2101 94.3693 22.8274 95.4546 21.7421C96.5398 20.6569 97.9225 19.9178 99.4277 19.6184C100.933 19.319 102.493 19.4727 103.911 20.06C105.329 20.6473 106.541 21.6419 107.394 22.9181C108.246 24.1942 108.701 25.6944 108.701 27.2292C108.703 28.2487 108.504 29.2585 108.114 30.2007C107.725 31.143 107.153 31.9991 106.432 32.72C105.711 33.4409 104.855 34.0124 103.913 34.4018C102.971 34.7912 101.961 34.9907 100.942 34.9891Z" fill="white"/>
<path d="M107.876 47.8418C107.159 48.8222 106.221 49.6188 105.137 50.1663C104.053 50.7138 102.854 50.9966 101.64 50.9915C100.427 50.9895 99.2311 50.7036 98.1483 50.1567C97.0655 49.6098 96.1257 48.817 95.4042 47.8418H86.8315C87.8097 51.0035 89.7744 53.7689 92.438 55.733C95.1017 57.6971 98.3242 58.7568 101.634 58.7568C104.943 58.7568 108.166 57.6971 110.829 55.733C113.493 53.7689 115.458 51.0035 116.436 47.8418H107.876Z" fill="#0974E4"/>
<path d="M122.24 2.84486L130 0V9.1823H122.24V2.84486Z" fill="#0974E4"/>
</g>
<defs>
<clipPath id="clip0_336_505">
<rect width="130" height="58.7388" fill="white"/>
</clipPath>
</defs>
</svg>
