<svg width="103" height="47" viewBox="0 0 103 47" fill="none" xmlns="http://www.w3.org/2000/svg">
<g clip-path="url(#clip0_1_13)">
<path d="M35.36 9.22998H29.27V33.65H35.36V9.22998Z" fill="black"/>
<path d="M102.35 9.23999H96.24V33.66H102.35V9.23999Z" fill="black"/>
<path d="M25.26 9.22998L16.51 33.66H8.76L0 9.22998H6.25L12.64 27.06L19.01 9.22998H25.26Z" fill="black"/>
<path d="M51.63 9.23999C49.2142 9.23802 46.8522 9.95269 44.8427 11.2936C42.8333 12.6345 41.2667 14.5413 40.3413 16.7728C39.416 19.0043 39.1733 21.4602 39.6441 23.8296C40.1149 26.199 41.278 28.3756 42.9862 30.0838C44.6944 31.792 46.871 32.9551 49.2404 33.4259C51.6098 33.8967 54.0657 33.654 56.2972 32.7286C58.5287 31.8033 60.4355 30.2367 61.7764 28.2273C63.1173 26.2178 63.832 23.8558 63.83 21.44C63.8247 18.206 62.5377 15.1059 60.2509 12.8191C57.9641 10.5323 54.864 9.24528 51.63 9.23999ZM51.63 27.55C50.4224 27.546 49.2431 27.1843 48.2409 26.5106C47.2388 25.8368 46.4588 24.8812 45.9994 23.7644C45.54 22.6476 45.4218 21.4197 45.6598 20.2358C45.8979 19.0519 46.4813 17.9651 47.3366 17.1126C48.1919 16.2601 49.2807 15.6801 50.4653 15.446C51.65 15.2118 52.8775 15.334 53.9928 15.797C55.1081 16.2601 56.0611 17.0432 56.7316 18.0475C57.4021 19.0519 57.76 20.2324 57.76 21.44C57.7613 22.2444 57.6035 23.0412 57.2957 23.7844C56.9878 24.5276 56.5361 25.2026 55.9663 25.7705C55.3965 26.3384 54.7201 26.7879 53.9759 27.0933C53.2317 27.3988 52.4344 27.5539 51.63 27.55Z" fill="black"/>
<path d="M79.48 9.23999C77.0642 9.23802 74.7022 9.95269 72.6927 11.2936C70.6833 12.6345 69.1167 14.5413 68.1914 16.7728C67.266 19.0043 67.0233 21.4602 67.4941 23.8296C67.9649 26.199 69.128 28.3756 70.8362 30.0838C72.5444 31.792 74.721 32.9551 77.0904 33.4259C79.4598 33.8967 81.9157 33.654 84.1472 32.7286C86.3787 31.8033 88.2855 30.2367 89.6264 28.2273C90.9673 26.2178 91.682 23.8558 91.68 21.44C91.6747 18.206 90.3877 15.1059 88.1009 12.8191C85.8141 10.5323 82.714 9.24528 79.48 9.23999ZM79.48 27.55C78.2716 27.55 77.0903 27.1917 76.0855 26.5203C75.0807 25.8489 74.2975 24.8946 73.8351 23.7782C73.3726 22.6617 73.2516 21.4332 73.4874 20.248C73.7232 19.0628 74.3051 17.9741 75.1596 17.1196C76.0141 16.2651 77.1028 15.6831 78.288 15.4474C79.4732 15.2116 80.7017 15.3326 81.8182 15.7951C82.9347 16.2575 83.8889 17.0407 84.5603 18.0455C85.2317 19.0502 85.59 20.2315 85.59 21.44C85.5913 22.2427 85.4342 23.0378 85.1276 23.7797C84.821 24.5216 84.371 25.1957 83.8034 25.7634C83.2357 26.331 82.5616 26.781 81.8198 27.0876C81.0779 27.3942 80.2827 27.5513 79.48 27.55Z" fill="black"/>
<path d="M84.94 37.67C84.3758 38.4419 83.6366 39.0692 82.7831 39.5003C81.9297 39.9314 80.9862 40.154 80.03 40.15C79.0748 40.1484 78.1333 39.9233 77.2807 39.4927C76.4281 39.0621 75.6881 38.4378 75.12 37.67H68.37C69.1402 40.1594 70.6872 42.3369 72.7845 43.8834C74.8818 45.4299 77.4192 46.2643 80.025 46.2643C82.6308 46.2643 85.1682 45.4299 87.2655 43.8834C89.3628 42.3369 90.9098 40.1594 91.68 37.67H84.94Z" fill="#24BCEB"/>
<path d="M96.25 2.24L102.36 0V7.23H96.25V2.24Z" fill="#24BCEB"/>
</g>
<defs>
<clipPath id="clip0_1_13">
<rect width="102.36" height="46.25" fill="white"/>
</clipPath>
</defs>
</svg>
