<svg width="103" height="47" viewBox="0 0 103 47" fill="none" xmlns="http://www.w3.org/2000/svg">
<g clip-path="url(#clip0_183_416)">
<path d="M35.3595 9.22998H29.2695V33.65H35.3595V9.22998Z" fill="white"/>
<path d="M102.35 9.24023H96.2402V33.6602H102.35V9.24023Z" fill="white"/>
<path d="M25.26 9.22998L16.51 33.66H8.76L0 9.22998H6.25L12.64 27.06L19.01 9.22998H25.26Z" fill="white"/>
<path d="M51.6302 9.24024C49.2144 9.23826 46.8523 9.95294 44.8429 11.2938C42.8334 12.6347 41.2669 14.5416 40.3415 16.7731C39.4161 19.0045 39.1735 21.4604 39.6443 23.8298C40.1151 26.1993 41.2782 28.3758 42.9864 30.084C44.6946 31.7922 46.8711 32.9553 49.2406 33.4261C51.61 33.8969 54.0659 33.6543 56.2973 32.7289C58.5288 31.8035 60.4357 30.237 61.7766 28.2275C63.1175 26.2181 63.8321 23.856 63.8302 21.4402C63.8249 18.2062 62.5378 15.1062 60.251 12.8194C57.9642 10.5326 54.8642 9.24553 51.6302 9.24024ZM51.6302 27.5502C50.4226 27.5463 49.2432 27.1846 48.2411 26.5108C47.2389 25.837 46.4589 24.8814 45.9995 23.7646C45.5401 22.6478 45.422 21.4199 45.66 20.236C45.898 19.0521 46.4815 17.9653 47.3368 17.1128C48.1921 16.2603 49.2808 15.6804 50.4655 15.4462C51.6502 15.2121 52.8777 15.3342 53.9929 15.7973C55.1082 16.2603 56.0613 17.0434 56.7318 18.0478C57.4023 19.0521 57.7602 20.2326 57.7602 21.4402C57.7615 22.2447 57.6037 23.0414 57.2959 23.7846C56.988 24.5278 56.5362 25.2028 55.9665 25.7707C55.3967 26.3386 54.7203 26.7882 53.9761 27.0936C53.2318 27.399 52.4346 27.5542 51.6302 27.5502Z" fill="white"/>
<path d="M79.4798 9.24024C77.064 9.23826 74.7019 9.95294 72.6925 11.2938C70.683 12.6347 69.1165 14.5416 68.1911 16.7731C67.2657 19.0045 67.0231 21.4604 67.4939 23.8298C67.9647 26.1993 69.1278 28.3758 70.836 30.084C72.5442 31.7922 74.7207 32.9553 77.0902 33.4261C79.4596 33.8969 81.9155 33.6543 84.147 32.7289C86.3785 31.8035 88.2853 30.237 89.6262 28.2275C90.9671 26.2181 91.6817 23.856 91.6798 21.4402C91.6745 18.2062 90.3874 15.1062 88.1006 12.8194C85.8138 10.5326 82.7138 9.24553 79.4798 9.24024ZM79.4798 27.5502C78.2713 27.5502 77.09 27.1919 76.0852 26.5205C75.0805 25.8491 74.2973 24.8949 73.8349 23.7784C73.3724 22.662 73.2514 21.4335 73.4872 20.2482C73.7229 19.063 74.3048 17.9743 75.1593 17.1198C76.0138 16.2653 77.1025 15.6834 78.2878 15.4476C79.473 15.2119 80.7015 15.3329 81.818 15.7953C82.9344 16.2578 83.8887 17.0409 84.56 18.0457C85.2314 19.0505 85.5898 20.2318 85.5898 21.4402C85.5911 22.243 85.4339 23.0381 85.1273 23.78C84.8208 24.5219 84.3708 25.196 83.8031 25.7636C83.2355 26.3312 82.5614 26.7812 81.8195 27.0878C81.0776 27.3944 80.2825 27.5516 79.4798 27.5502Z" fill="white"/>
<path d="M84.9391 37.6699C84.3749 38.4419 83.6358 39.0691 82.7823 39.5002C81.9288 39.9313 80.9853 40.154 80.0291 40.1499C79.074 40.1484 78.1324 39.9233 77.2798 39.4926C76.4272 39.062 75.6873 38.4378 75.1191 37.6699H68.3691C69.1393 40.1594 70.6863 42.3368 72.7836 43.8833C74.8809 45.4299 77.4183 46.2642 80.0241 46.2642C82.63 46.2642 85.1674 45.4299 87.2647 43.8833C89.362 42.3368 90.909 40.1594 91.6791 37.6699H84.9391Z" fill="#FA347B"/>
<path d="M96.25 2.24L102.36 0V7.23H96.25V2.24Z" fill="#FA347B"/>
</g>
<defs>
<clipPath id="clip0_183_416">
<rect width="102.36" height="46.25" fill="white"/>
</clipPath>
</defs>
</svg>
