<svg width="103" height="47" viewBox="0 0 103 47" fill="none" xmlns="http://www.w3.org/2000/svg">
<g clip-path="url(#clip0_115_84)">
<path d="M35.36 9.22998H29.27V33.65H35.36V9.22998Z" fill="white"/>
<path d="M102.35 9.24023H96.24V33.6602H102.35V9.24023Z" fill="white"/>
<path d="M25.26 9.22998L16.51 33.66H8.76L0 9.22998H6.25L12.64 27.06L19.01 9.22998H25.26Z" fill="white"/>
<path d="M51.63 9.24024C49.2142 9.23826 46.8522 9.95294 44.8427 11.2938C42.8333 12.6347 41.2667 14.5416 40.3413 16.7731C39.416 19.0045 39.1733 21.4604 39.6441 23.8298C40.1149 26.1993 41.278 28.3758 42.9862 30.084C44.6944 31.7922 46.871 32.9553 49.2404 33.4261C51.6098 33.8969 54.0657 33.6543 56.2972 32.7289C58.5287 31.8035 60.4355 30.237 61.7764 28.2275C63.1173 26.2181 63.832 23.856 63.83 21.4402C63.8247 18.2062 62.5377 15.1062 60.2509 12.8194C57.9641 10.5326 54.864 9.24553 51.63 9.24024ZM51.63 27.5502C50.4224 27.5463 49.2431 27.1846 48.2409 26.5108C47.2388 25.837 46.4588 24.8814 45.9994 23.7646C45.54 22.6478 45.4218 21.4199 45.6598 20.236C45.8979 19.0521 46.4813 17.9653 47.3366 17.1128C48.1919 16.2603 49.2807 15.6804 50.4653 15.4462C51.65 15.2121 52.8775 15.3342 53.9928 15.7973C55.1081 16.2603 56.0611 17.0434 56.7316 18.0478C57.4021 19.0521 57.76 20.2326 57.76 21.4402C57.7613 22.2447 57.6035 23.0414 57.2957 23.7846C56.9878 24.5278 56.5361 25.2028 55.9663 25.7707C55.3965 26.3386 54.7201 26.7882 53.9759 27.0936C53.2317 27.399 52.4344 27.5542 51.63 27.5502Z" fill="white"/>
<path d="M79.48 9.24024C77.0642 9.23826 74.7022 9.95294 72.6927 11.2938C70.6833 12.6347 69.1167 14.5416 68.1914 16.7731C67.266 19.0045 67.0233 21.4604 67.4941 23.8298C67.9649 26.1993 69.128 28.3758 70.8362 30.084C72.5444 31.7922 74.721 32.9553 77.0904 33.4261C79.4598 33.8969 81.9157 33.6543 84.1472 32.7289C86.3787 31.8035 88.2855 30.237 89.6264 28.2275C90.9673 26.2181 91.682 23.856 91.68 21.4402C91.6747 18.2062 90.3877 15.1062 88.1009 12.8194C85.8141 10.5326 82.714 9.24553 79.48 9.24024ZM79.48 27.5502C78.2716 27.5502 77.0903 27.1919 76.0855 26.5205C75.0807 25.8491 74.2975 24.8949 73.8351 23.7784C73.3726 22.662 73.2516 21.4335 73.4874 20.2482C73.7232 19.063 74.3051 17.9743 75.1596 17.1198C76.0141 16.2653 77.1028 15.6834 78.288 15.4476C79.4732 15.2119 80.7017 15.3329 81.8182 15.7953C82.9347 16.2578 83.8889 17.0409 84.5603 18.0457C85.2317 19.0505 85.59 20.2318 85.59 21.4402C85.5913 22.243 85.4342 23.0381 85.1276 23.78C84.821 24.5219 84.371 25.196 83.8034 25.7636C83.2357 26.3312 82.5616 26.7812 81.8198 27.0878C81.0779 27.3944 80.2827 27.5516 79.48 27.5502Z" fill="white"/>
<path d="M84.94 37.6699C84.3758 38.4419 83.6366 39.0691 82.7831 39.5002C81.9297 39.9313 80.9862 40.154 80.03 40.1499C79.0748 40.1484 78.1333 39.9233 77.2807 39.4926C76.4281 39.062 75.6881 38.4378 75.12 37.6699H68.37C69.1402 40.1594 70.6872 42.3368 72.7845 43.8833C74.8818 45.4299 77.4192 46.2642 80.025 46.2642C82.6308 46.2642 85.1682 45.4299 87.2655 43.8833C89.3628 42.3368 90.9098 40.1594 91.68 37.6699H84.94Z" fill="#24BCEB"/>
<path d="M96.25 2.24L102.36 0V7.23H96.25V2.24Z" fill="#24BCEB"/>
</g>
<defs>
<clipPath id="clip0_115_84">
<rect width="102.36" height="46.25" fill="white"/>
</clipPath>
</defs>
</svg>
