<svg width="42" height="92" viewBox="0 0 42 92" fill="none" xmlns="http://www.w3.org/2000/svg">
<g clip-path="url(#clip0_222_188)">
<path d="M8.38184 60.2188L8.38184 65.6924L30.5578 65.6924L30.5578 60.2188L8.38184 60.2188Z" fill="white"/>
<path d="M8.39087 0.00901127L8.39087 5.50061L30.5669 5.50061L30.5669 0.0090103L8.39087 0.00901127Z" fill="white"/>
<path d="M8.38183 69.2966L30.5669 77.161L30.5669 84.1266L8.38184 92L8.38184 86.3826L24.5734 80.6393L8.38184 74.914L8.38183 69.2966Z" fill="white"/>
<path d="M8.39087 45.5955C8.38908 47.7668 9.03808 49.8898 10.2558 51.6959C11.4734 53.5019 13.205 54.9099 15.2315 55.7416C17.2579 56.5734 19.4881 56.7915 21.6398 56.3683C23.7915 55.9451 25.768 54.8998 27.3193 53.3645C28.8705 51.8291 29.9267 49.8729 30.3543 47.7433C30.7818 45.6137 30.5615 43.4064 29.7211 41.4007C28.8808 39.3951 27.4582 37.6812 25.6334 36.4761C23.8086 35.2709 21.6636 34.6285 19.4698 34.6303C16.533 34.6351 13.7178 35.7919 11.6411 37.8472C9.56446 39.9026 8.39567 42.6888 8.39087 45.5955ZM25.0183 45.5955C25.0147 46.6809 24.6863 47.7409 24.0744 48.6416C23.4626 49.5423 22.5947 50.2434 21.5806 50.6563C20.5664 51.0692 19.4513 51.1754 18.3762 50.9614C17.3011 50.7475 16.3142 50.2231 15.54 49.4544C14.7658 48.6856 14.2392 47.7071 14.0266 46.6423C13.8139 45.5775 13.9249 44.4743 14.3454 43.4719C14.7658 42.4695 15.477 41.6129 16.3891 41.0102C17.3011 40.4076 18.3732 40.086 19.4698 40.086C20.2003 40.0848 20.9238 40.2266 21.5988 40.5033C22.2737 40.78 22.8866 41.186 23.4023 41.6981C23.918 42.2102 24.3263 42.8182 24.6036 43.4871C24.881 44.156 25.0219 44.8725 25.0183 45.5955Z" fill="white"/>
<path d="M8.39087 20.5643C8.38908 22.7355 9.03808 24.8585 10.2558 26.6646C11.4734 28.4707 13.205 29.8787 15.2315 30.7104C17.2579 31.5421 19.4881 31.7602 21.6398 31.3371C23.7915 30.9139 25.768 29.8685 27.3193 28.3332C28.8705 26.7979 29.9267 24.8417 30.3543 22.712C30.7818 20.5824 30.5615 18.3751 29.7211 16.3695C28.8808 14.3638 27.4582 12.65 25.6334 11.4448C23.8086 10.2396 21.6636 9.59729 19.4698 9.59907C16.533 9.60382 13.7178 10.7606 11.6411 12.816C9.56446 14.8713 8.39567 17.6576 8.39087 20.5643ZM25.0183 20.5643C25.0183 21.6504 24.6929 22.7122 24.0832 23.6153C23.4736 24.5183 22.607 25.2222 21.5931 25.6379C20.5793 26.0535 19.4636 26.1623 18.3873 25.9504C17.311 25.7385 16.3224 25.2154 15.5464 24.4474C14.7704 23.6794 14.242 22.7009 14.0279 21.6356C13.8138 20.5704 13.9236 19.4662 14.3436 18.4627C14.7636 17.4593 15.4747 16.6016 16.3872 15.9982C17.2996 15.3948 18.3724 15.0727 19.4698 15.0727C20.1988 15.0715 20.9208 15.2127 21.5945 15.4883C22.2683 15.7639 22.8804 16.1683 23.3959 16.6785C23.9113 17.1887 24.32 17.7945 24.5984 18.4613C24.8768 19.1282 25.0195 19.8428 25.0183 20.5643Z" fill="white"/>
<path d="M34.2085 15.6569C34.9095 16.164 35.4791 16.8283 35.8706 17.5954C36.2621 18.3625 36.4643 19.2105 36.4606 20.0699C36.4592 20.9284 36.2548 21.7747 35.8637 22.541C35.4727 23.3073 34.9058 23.9724 34.2085 24.483L34.2085 30.5498C36.4692 29.8576 38.4465 28.4672 39.8509 26.5821C41.2554 24.6971 42.0131 22.4165 42.0131 20.0744C42.0131 17.7323 41.2554 15.4517 39.8509 13.5667C38.4465 11.6817 36.4692 10.2913 34.2085 9.59904L34.2085 15.6569Z" fill="#FA347B"/>
<path d="M2.03416 5.49158L-2.40045e-07 -2.19345e-05L6.56562 -2.22215e-05L6.56562 5.49158L2.03416 5.49158Z" fill="#FA347B"/>
</g>
<defs>
<clipPath id="clip0_222_188">
<rect width="92" height="42" fill="white" transform="translate(0 92) rotate(-90)"/>
</clipPath>
</defs>
</svg>
